<svg width="399" height="226" viewBox="0 0 399 226" fill="none" xmlns="http://www.w3.org/2000/svg">
<g filter="url(#filter0_d_12_6)">
<path d="M9 45C9 26.1438 9 16.7157 14.8579 10.8579C20.7157 5 30.1438 5 49 5H350C368.856 5 378.284 5 384.142 10.8579C390 16.7157 390 26.1438 390 45V173C390 191.856 390 201.284 384.142 207.142C378.284 213 368.856 213 350 213H49C30.1438 213 20.7157 213 14.8579 207.142C9 201.284 9 191.856 9 173V45Z" fill="url(#paint0_linear_12_6)"/>
<path d="M350 2.5H49L48.8065 2.5C39.5423 2.49996 32.334 2.49993 26.7214 3.25453C20.9979 4.02403 16.561 5.61924 13.0901 9.0901C9.61924 12.561 8.02403 16.9979 7.25453 22.7214C6.49993 28.334 6.49996 35.5423 6.5 44.8066L6.5 45V173L6.5 173.193C6.49996 182.458 6.49993 189.666 7.25453 195.279C8.02403 201.002 9.61924 205.439 13.0901 208.91C16.561 212.381 20.9979 213.976 26.7214 214.745C32.334 215.5 39.5423 215.5 48.8065 215.5H49H350H350.193C359.458 215.5 366.666 215.5 372.279 214.745C378.002 213.976 382.439 212.381 385.91 208.91C389.381 205.439 390.976 201.002 391.745 195.279C392.5 189.666 392.5 182.458 392.5 173.193V173V45V44.8065C392.5 35.5423 392.5 28.334 391.745 22.7214C390.976 16.9979 389.381 12.561 385.91 9.0901C382.439 5.61924 378.002 4.02403 372.279 3.25453C366.666 2.49993 359.458 2.49996 350.193 2.5L350 2.5Z" stroke="url(#paint1_linear_12_6)" stroke-width="5"/>
</g>
<mask id="path-3-outside-1_12_6" maskUnits="userSpaceOnUse" x="24" y="60" width="354" height="97" fill="black">
<rect fill="white" x="24" y="60" width="354" height="97"/>
<path d="M86.28 87.72C86.28 82.6 83.72 80.04 78.6 80.04H56.84C51.72 80.04 49.16 82.6 49.16 87.72V128.68C49.16 133.8 51.72 136.36 56.84 136.36H78.6C83.72 136.36 86.28 133.8 86.28 128.68V87.72ZM109.32 128.68C109.32 137.64 107.272 144.168 103.176 148.264C99.1653 152.275 92.68 154.28 83.72 154.28H51.72C42.76 154.28 36.232 152.275 32.136 148.264C28.1253 144.168 26.12 137.64 26.12 128.68V87.72C26.12 78.76 28.1253 72.2747 32.136 68.264C36.232 64.168 42.76 62.12 51.72 62.12H83.72C92.68 62.12 99.1653 64.168 103.176 68.264C107.272 72.2747 109.32 78.76 109.32 87.72V128.68ZM122.18 63.4H175.94C184.9 63.4 191.385 65.448 195.396 69.544C199.492 73.5547 201.54 80.04 201.54 89V101.8C201.54 110.76 199.492 117.288 195.396 121.384C191.385 125.395 184.9 127.4 175.94 127.4H145.22V153H122.18V63.4ZM178.5 89C178.5 83.88 175.94 81.32 170.82 81.32H145.22V109.48H170.82C175.94 109.48 178.5 106.92 178.5 101.8V89ZM291.135 153H268.095V97.96L237.375 153H213.055V63.4H236.095V118.44L266.815 63.4H291.135V153ZM375.675 151.72C356.646 153.427 340.859 154.28 328.315 154.28C319.952 154.28 313.808 152.317 309.883 148.392C305.958 144.467 303.995 138.323 303.995 129.96V89C303.995 80.04 306 73.5547 310.011 69.544C314.107 65.448 320.635 63.4 329.595 63.4H375.675V81.32H334.715C329.595 81.32 327.035 83.88 327.035 89V129.96C327.035 131.923 327.59 133.501 328.699 134.696C329.894 135.805 331.387 136.36 333.179 136.36C334.971 136.36 336.934 136.36 339.067 136.36C341.2 136.275 343.419 136.189 345.723 136.104C348.027 136.019 350.331 135.933 352.635 135.848C355.024 135.763 358.054 135.592 361.723 135.336C365.478 135.08 370.128 134.781 375.675 134.44V151.72Z"/>
</mask>
<path d="M86.28 87.72C86.28 82.6 83.72 80.04 78.6 80.04H56.84C51.72 80.04 49.16 82.6 49.16 87.72V128.68C49.16 133.8 51.72 136.36 56.84 136.36H78.6C83.72 136.36 86.28 133.8 86.28 128.68V87.72ZM109.32 128.68C109.32 137.64 107.272 144.168 103.176 148.264C99.1653 152.275 92.68 154.28 83.72 154.28H51.72C42.76 154.28 36.232 152.275 32.136 148.264C28.1253 144.168 26.12 137.64 26.12 128.68V87.72C26.12 78.76 28.1253 72.2747 32.136 68.264C36.232 64.168 42.76 62.12 51.72 62.12H83.72C92.68 62.12 99.1653 64.168 103.176 68.264C107.272 72.2747 109.32 78.76 109.32 87.72V128.68ZM122.18 63.4H175.94C184.9 63.4 191.385 65.448 195.396 69.544C199.492 73.5547 201.54 80.04 201.54 89V101.8C201.54 110.76 199.492 117.288 195.396 121.384C191.385 125.395 184.9 127.4 175.94 127.4H145.22V153H122.18V63.4ZM178.5 89C178.5 83.88 175.94 81.32 170.82 81.32H145.22V109.48H170.82C175.94 109.48 178.5 106.92 178.5 101.8V89ZM291.135 153H268.095V97.96L237.375 153H213.055V63.4H236.095V118.44L266.815 63.4H291.135V153ZM375.675 151.72C356.646 153.427 340.859 154.28 328.315 154.28C319.952 154.28 313.808 152.317 309.883 148.392C305.958 144.467 303.995 138.323 303.995 129.96V89C303.995 80.04 306 73.5547 310.011 69.544C314.107 65.448 320.635 63.4 329.595 63.4H375.675V81.32H334.715C329.595 81.32 327.035 83.88 327.035 89V129.96C327.035 131.923 327.59 133.501 328.699 134.696C329.894 135.805 331.387 136.36 333.179 136.36C334.971 136.36 336.934 136.36 339.067 136.36C341.2 136.275 343.419 136.189 345.723 136.104C348.027 136.019 350.331 135.933 352.635 135.848C355.024 135.763 358.054 135.592 361.723 135.336C365.478 135.08 370.128 134.781 375.675 134.44V151.72Z" fill="url(#paint2_linear_12_6)"/>
<path d="M103.176 148.264L101.762 146.85L101.762 146.85L103.176 148.264ZM32.136 148.264L30.707 149.663L30.7217 149.678L30.7368 149.693L32.136 148.264ZM32.136 68.264L30.7218 66.8498L30.7218 66.8498L32.136 68.264ZM103.176 68.264L101.747 69.6632L101.762 69.6783L101.777 69.693L103.176 68.264ZM88.28 87.72C88.28 84.8517 87.5616 82.3331 85.7742 80.5458C83.9869 78.7584 81.4683 78.04 78.6 78.04V82.04C80.8517 82.04 82.1732 82.6016 82.9458 83.3742C83.7184 84.1468 84.28 85.4683 84.28 87.72H88.28ZM78.6 78.04H56.84V82.04H78.6V78.04ZM56.84 78.04C53.9717 78.04 51.4531 78.7584 49.6658 80.5458C47.8784 82.3331 47.16 84.8517 47.16 87.72H51.16C51.16 85.4683 51.7216 84.1468 52.4942 83.3742C53.2669 82.6016 54.5883 82.04 56.84 82.04V78.04ZM47.16 87.72V128.68H51.16V87.72H47.16ZM47.16 128.68C47.16 131.548 47.8784 134.067 49.6658 135.854C51.4531 137.642 53.9717 138.36 56.84 138.36V134.36C54.5883 134.36 53.2669 133.798 52.4942 133.026C51.7216 132.253 51.16 130.932 51.16 128.68H47.16ZM56.84 138.36H78.6V134.36H56.84V138.36ZM78.6 138.36C81.4683 138.36 83.9869 137.642 85.7742 135.854C87.5616 134.067 88.28 131.548 88.28 128.68H84.28C84.28 130.932 83.7184 132.253 82.9458 133.026C82.1732 133.798 80.8517 134.36 78.6 134.36V138.36ZM88.28 128.68V87.72H84.28V128.68H88.28ZM107.32 128.68C107.32 137.393 105.321 143.29 101.762 146.85L104.59 149.678C109.223 145.046 111.32 137.887 111.32 128.68H107.32ZM101.762 146.85C98.2941 150.317 92.4471 152.28 83.72 152.28V156.28C92.9129 156.28 100.037 154.232 104.59 149.678L101.762 146.85ZM83.72 152.28H51.72V156.28H83.72V152.28ZM51.72 152.28C42.9978 152.28 37.0939 150.319 33.5353 146.835L30.7368 149.693C35.3701 154.23 42.5222 156.28 51.72 156.28V152.28ZM33.565 146.865C30.0805 143.306 28.12 137.402 28.12 128.68H24.12C24.12 137.878 26.1701 145.03 30.707 149.663L33.565 146.865ZM28.12 128.68V87.72H24.12V128.68H28.12ZM28.12 87.72C28.12 78.9929 30.0826 73.1459 33.5502 69.6782L30.7218 66.8498C26.1681 71.4035 24.12 78.5271 24.12 87.72H28.12ZM33.5502 69.6782C37.1097 66.1187 43.0074 64.12 51.72 64.12V60.12C42.5126 60.12 35.3543 62.2173 30.7218 66.8498L33.5502 69.6782ZM51.72 64.12H83.72V60.12H51.72V64.12ZM83.72 64.12C92.4374 64.12 98.2782 66.1207 101.747 69.6632L104.605 66.8647C100.052 62.2153 92.9226 60.12 83.72 60.12V64.12ZM101.777 69.693C105.319 73.1618 107.32 79.0026 107.32 87.72H111.32C111.32 78.5174 109.225 71.3876 104.575 66.835L101.777 69.693ZM107.32 87.72V128.68H111.32V87.72H107.32ZM122.18 63.4V61.4H120.18V63.4H122.18ZM195.396 69.544L193.967 70.9432L193.982 70.9583L193.997 70.973L195.396 69.544ZM195.396 121.384L196.81 122.798L196.81 122.798L195.396 121.384ZM145.22 127.4V125.4H143.22V127.4H145.22ZM145.22 153V155H147.22V153H145.22ZM122.18 153H120.18V155H122.18V153ZM145.22 81.32V79.32H143.22V81.32H145.22ZM145.22 109.48H143.22V111.48H145.22V109.48ZM122.18 65.4H175.94V61.4H122.18V65.4ZM175.94 65.4C184.657 65.4 190.498 67.4007 193.967 70.9432L196.825 68.1447C192.272 63.4953 185.143 61.4 175.94 61.4V65.4ZM193.997 70.973C197.539 74.4418 199.54 80.2826 199.54 89H203.54C203.54 79.7974 201.445 72.6676 196.795 68.115L193.997 70.973ZM199.54 89V101.8H203.54V89H199.54ZM199.54 101.8C199.54 110.513 197.541 116.41 193.982 119.97L196.81 122.798C201.443 118.166 203.54 111.007 203.54 101.8H199.54ZM193.982 119.97C190.514 123.437 184.667 125.4 175.94 125.4V129.4C185.133 129.4 192.257 127.352 196.81 122.798L193.982 119.97ZM175.94 125.4H145.22V129.4H175.94V125.4ZM143.22 127.4V153H147.22V127.4H143.22ZM145.22 151H122.18V155H145.22V151ZM124.18 153V63.4H120.18V153H124.18ZM180.5 89C180.5 86.1317 179.782 83.6131 177.994 81.8258C176.207 80.0384 173.688 79.32 170.82 79.32V83.32C173.072 83.32 174.393 83.8816 175.166 84.6542C175.938 85.4269 176.5 86.7483 176.5 89H180.5ZM170.82 79.32H145.22V83.32H170.82V79.32ZM143.22 81.32V109.48H147.22V81.32H143.22ZM145.22 111.48H170.82V107.48H145.22V111.48ZM170.82 111.48C173.688 111.48 176.207 110.762 177.994 108.974C179.782 107.187 180.5 104.668 180.5 101.8H176.5C176.5 104.052 175.938 105.373 175.166 106.146C174.393 106.918 173.072 107.48 170.82 107.48V111.48ZM180.5 101.8V89H176.5V101.8H180.5ZM291.135 153V155H293.135V153H291.135ZM268.095 153H266.095V155H268.095V153ZM268.095 97.96H270.095V90.273L266.349 96.9853L268.095 97.96ZM237.375 153V155H238.549L239.121 153.975L237.375 153ZM213.055 153H211.055V155H213.055V153ZM213.055 63.4V61.4H211.055V63.4H213.055ZM236.095 63.4H238.095V61.4H236.095V63.4ZM236.095 118.44H234.095V126.127L237.841 119.415L236.095 118.44ZM266.815 63.4V61.4H265.641L265.069 62.4253L266.815 63.4ZM291.135 63.4H293.135V61.4H291.135V63.4ZM291.135 151H268.095V155H291.135V151ZM270.095 153V97.96H266.095V153H270.095ZM266.349 96.9853L235.629 152.025L239.121 153.975L269.841 98.9347L266.349 96.9853ZM237.375 151H213.055V155H237.375V151ZM215.055 153V63.4H211.055V153H215.055ZM213.055 65.4H236.095V61.4H213.055V65.4ZM234.095 63.4V118.44H238.095V63.4H234.095ZM237.841 119.415L268.561 64.3747L265.069 62.4253L234.349 117.465L237.841 119.415ZM266.815 65.4H291.135V61.4H266.815V65.4ZM289.135 63.4V153H293.135V63.4H289.135ZM375.675 151.72L375.854 153.712L377.675 153.549V151.72H375.675ZM309.883 148.392L311.297 146.978L311.297 146.978L309.883 148.392ZM310.011 69.544L311.425 70.9582L311.425 70.9582L310.011 69.544ZM375.675 63.4H377.675V61.4H375.675V63.4ZM375.675 81.32V83.32H377.675V81.32H375.675ZM328.699 134.696L327.233 136.057L327.284 136.111L327.338 136.162L328.699 134.696ZM339.067 136.36V138.36H339.107L339.147 138.358L339.067 136.36ZM345.723 136.104L345.797 138.103L345.797 138.103L345.723 136.104ZM352.635 135.848L352.564 133.849L352.561 133.849L352.635 135.848ZM361.723 135.336L361.587 133.341L361.584 133.341L361.723 135.336ZM375.675 134.44H377.675V132.313L375.552 132.444L375.675 134.44ZM375.496 149.728C356.499 151.432 340.777 152.28 328.315 152.28V156.28C340.941 156.28 356.792 155.422 375.854 153.712L375.496 149.728ZM328.315 152.28C320.218 152.28 314.694 150.375 311.297 146.978L308.469 149.806C312.922 154.26 319.687 156.28 328.315 156.28V152.28ZM311.297 146.978C307.9 143.581 305.995 138.057 305.995 129.96H301.995C301.995 138.588 304.015 145.353 308.469 149.806L311.297 146.978ZM305.995 129.96V89H301.995V129.96H305.995ZM305.995 89C305.995 80.2729 307.958 74.4259 311.425 70.9582L308.597 68.1298C304.043 72.6835 301.995 79.8071 301.995 89H305.995ZM311.425 70.9582C314.985 67.3987 320.882 65.4 329.595 65.4V61.4C320.388 61.4 313.229 63.4973 308.597 68.1298L311.425 70.9582ZM329.595 65.4H375.675V61.4H329.595V65.4ZM373.675 63.4V81.32H377.675V63.4H373.675ZM375.675 79.32H334.715V83.32H375.675V79.32ZM334.715 79.32C331.847 79.32 329.328 80.0384 327.541 81.8258C325.753 83.6131 325.035 86.1317 325.035 89H329.035C329.035 86.7483 329.597 85.4269 330.369 84.6542C331.142 83.8816 332.463 83.32 334.715 83.32V79.32ZM325.035 89V129.96H329.035V89H325.035ZM325.035 129.96C325.035 132.319 325.713 134.42 327.233 136.057L330.165 133.335C329.466 132.583 329.035 131.527 329.035 129.96H325.035ZM327.338 136.162C328.941 137.65 330.937 138.36 333.179 138.36V134.36C331.837 134.36 330.847 133.961 330.06 133.23L327.338 136.162ZM333.179 138.36C333.183 138.36 333.186 138.36 333.19 138.36C333.193 138.36 333.197 138.36 333.2 138.36C333.204 138.36 333.207 138.36 333.211 138.36C333.214 138.36 333.218 138.36 333.221 138.36C333.225 138.36 333.228 138.36 333.232 138.36C333.235 138.36 333.239 138.36 333.242 138.36C333.246 138.36 333.249 138.36 333.253 138.36C333.256 138.36 333.26 138.36 333.263 138.36C333.267 138.36 333.27 138.36 333.274 138.36C333.277 138.36 333.281 138.36 333.284 138.36C333.288 138.36 333.291 138.36 333.295 138.36C333.298 138.36 333.302 138.36 333.305 138.36C333.309 138.36 333.312 138.36 333.316 138.36C333.319 138.36 333.323 138.36 333.326 138.36C333.33 138.36 333.333 138.36 333.337 138.36C333.34 138.36 333.344 138.36 333.348 138.36C333.351 138.36 333.355 138.36 333.358 138.36C333.362 138.36 333.365 138.36 333.369 138.36C333.372 138.36 333.376 138.36 333.379 138.36C333.383 138.36 333.386 138.36 333.39 138.36C333.393 138.36 333.397 138.36 333.4 138.36C333.404 138.36 333.407 138.36 333.411 138.36C333.414 138.36 333.418 138.36 333.422 138.36C333.425 138.36 333.429 138.36 333.432 138.36C333.436 138.36 333.439 138.36 333.443 138.36C333.446 138.36 333.45 138.36 333.453 138.36C333.457 138.36 333.46 138.36 333.464 138.36C333.467 138.36 333.471 138.36 333.475 138.36C333.478 138.36 333.482 138.36 333.485 138.36C333.489 138.36 333.492 138.36 333.496 138.36C333.499 138.36 333.503 138.36 333.506 138.36C333.51 138.36 333.513 138.36 333.517 138.36C333.521 138.36 333.524 138.36 333.528 138.36C333.531 138.36 333.535 138.36 333.538 138.36C333.542 138.36 333.545 138.36 333.549 138.36C333.552 138.36 333.556 138.36 333.56 138.36C333.563 138.36 333.567 138.36 333.57 138.36C333.574 138.36 333.577 138.36 333.581 138.36C333.584 138.36 333.588 138.36 333.591 138.36C333.595 138.36 333.599 138.36 333.602 138.36C333.606 138.36 333.609 138.36 333.613 138.36C333.616 138.36 333.62 138.36 333.623 138.36C333.627 138.36 333.631 138.36 333.634 138.36C333.638 138.36 333.641 138.36 333.645 138.36C333.648 138.36 333.652 138.36 333.655 138.36C333.659 138.36 333.663 138.36 333.666 138.36C333.67 138.36 333.673 138.36 333.677 138.36C333.68 138.36 333.684 138.36 333.688 138.36C333.691 138.36 333.695 138.36 333.698 138.36C333.702 138.36 333.705 138.36 333.709 138.36C333.712 138.36 333.716 138.36 333.72 138.36C333.723 138.36 333.727 138.36 333.73 138.36C333.734 138.36 333.737 138.36 333.741 138.36C333.745 138.36 333.748 138.36 333.752 138.36C333.755 138.36 333.759 138.36 333.762 138.36C333.766 138.36 333.77 138.36 333.773 138.36C333.777 138.36 333.78 138.36 333.784 138.36C333.787 138.36 333.791 138.36 333.795 138.36C333.798 138.36 333.802 138.36 333.805 138.36C333.809 138.36 333.812 138.36 333.816 138.36C333.82 138.36 333.823 138.36 333.827 138.36C333.83 138.36 333.834 138.36 333.838 138.36C333.841 138.36 333.845 138.36 333.848 138.36C333.852 138.36 333.855 138.36 333.859 138.36C333.863 138.36 333.866 138.36 333.87 138.36C333.873 138.36 333.877 138.36 333.881 138.36C333.884 138.36 333.888 138.36 333.891 138.36C333.895 138.36 333.898 138.36 333.902 138.36C333.906 138.36 333.909 138.36 333.913 138.36C333.916 138.36 333.92 138.36 333.924 138.36C333.927 138.36 333.931 138.36 333.934 138.36C333.938 138.36 333.942 138.36 333.945 138.36C333.949 138.36 333.952 138.36 333.956 138.36C333.96 138.36 333.963 138.36 333.967 138.36C333.97 138.36 333.974 138.36 333.977 138.36C333.981 138.36 333.985 138.36 333.988 138.36C333.992 138.36 333.995 138.36 333.999 138.36C334.003 138.36 334.006 138.36 334.01 138.36C334.013 138.36 334.017 138.36 334.021 138.36C334.024 138.36 334.028 138.36 334.032 138.36C334.035 138.36 334.039 138.36 334.042 138.36C334.046 138.36 334.05 138.36 334.053 138.36C334.057 138.36 334.06 138.36 334.064 138.36C334.068 138.36 334.071 138.36 334.075 138.36C334.078 138.36 334.082 138.36 334.086 138.36C334.089 138.36 334.093 138.36 334.096 138.36C334.1 138.36 334.104 138.36 334.107 138.36C334.111 138.36 334.115 138.36 334.118 138.36C334.122 138.36 334.125 138.36 334.129 138.36C334.133 138.36 334.136 138.36 334.14 138.36C334.143 138.36 334.147 138.36 334.151 138.36C334.154 138.36 334.158 138.36 334.162 138.36C334.165 138.36 334.169 138.36 334.172 138.36C334.176 138.36 334.18 138.36 334.183 138.36C334.187 138.36 334.191 138.36 334.194 138.36C334.198 138.36 334.201 138.36 334.205 138.36C334.209 138.36 334.212 138.36 334.216 138.36C334.22 138.36 334.223 138.36 334.227 138.36C334.23 138.36 334.234 138.36 334.238 138.36C334.241 138.36 334.245 138.36 334.249 138.36C334.252 138.36 334.256 138.36 334.259 138.36C334.263 138.36 334.267 138.36 334.27 138.36C334.274 138.36 334.278 138.36 334.281 138.36C334.285 138.36 334.288 138.36 334.292 138.36C334.296 138.36 334.299 138.36 334.303 138.36C334.307 138.36 334.31 138.36 334.314 138.36C334.318 138.36 334.321 138.36 334.325 138.36C334.329 138.36 334.332 138.36 334.336 138.36C334.339 138.36 334.343 138.36 334.347 138.36C334.35 138.36 334.354 138.36 334.358 138.36C334.361 138.36 334.365 138.36 334.369 138.36C334.372 138.36 334.376 138.36 334.38 138.36C334.383 138.36 334.387 138.36 334.39 138.36C334.394 138.36 334.398 138.36 334.401 138.36C334.405 138.36 334.409 138.36 334.412 138.36C334.416 138.36 334.42 138.36 334.423 138.36C334.427 138.36 334.431 138.36 334.434 138.36C334.438 138.36 334.442 138.36 334.445 138.36C334.449 138.36 334.453 138.36 334.456 138.36C334.46 138.36 334.463 138.36 334.467 138.36C334.471 138.36 334.474 138.36 334.478 138.36C334.482 138.36 334.485 138.36 334.489 138.36C334.493 138.36 334.496 138.36 334.5 138.36C334.504 138.36 334.507 138.36 334.511 138.36C334.515 138.36 334.518 138.36 334.522 138.36C334.526 138.36 334.529 138.36 334.533 138.36C334.537 138.36 334.54 138.36 334.544 138.36C334.548 138.36 334.551 138.36 334.555 138.36C334.559 138.36 334.562 138.36 334.566 138.36C334.57 138.36 334.573 138.36 334.577 138.36C334.581 138.36 334.584 138.36 334.588 138.36C334.592 138.36 334.595 138.36 334.599 138.36C334.603 138.36 334.606 138.36 334.61 138.36C334.614 138.36 334.617 138.36 334.621 138.36C334.625 138.36 334.628 138.36 334.632 138.36C334.636 138.36 334.639 138.36 334.643 138.36C334.647 138.36 334.65 138.36 334.654 138.36C334.658 138.36 334.662 138.36 334.665 138.36C334.669 138.36 334.673 138.36 334.676 138.36C334.68 138.36 334.684 138.36 334.687 138.36C334.691 138.36 334.695 138.36 334.698 138.36C334.702 138.36 334.706 138.36 334.709 138.36C334.713 138.36 334.717 138.36 334.72 138.36C334.724 138.36 334.728 138.36 334.732 138.36C334.735 138.36 334.739 138.36 334.743 138.36C334.746 138.36 334.75 138.36 334.754 138.36C334.757 138.36 334.761 138.36 334.765 138.36C334.768 138.36 334.772 138.36 334.776 138.36C334.779 138.36 334.783 138.36 334.787 138.36C334.791 138.36 334.794 138.36 334.798 138.36C334.802 138.36 334.805 138.36 334.809 138.36C334.813 138.36 334.816 138.36 334.82 138.36C334.824 138.36 334.828 138.36 334.831 138.36C334.835 138.36 334.839 138.36 334.842 138.36C334.846 138.36 334.85 138.36 334.853 138.36C334.857 138.36 334.861 138.36 334.865 138.36C334.868 138.36 334.872 138.36 334.876 138.36C334.879 138.36 334.883 138.36 334.887 138.36C334.89 138.36 334.894 138.36 334.898 138.36C334.902 138.36 334.905 138.36 334.909 138.36C334.913 138.36 334.916 138.36 334.92 138.36C334.924 138.36 334.928 138.36 334.931 138.36C334.935 138.36 334.939 138.36 334.942 138.36C334.946 138.36 334.95 138.36 334.954 138.36C334.957 138.36 334.961 138.36 334.965 138.36C334.968 138.36 334.972 138.36 334.976 138.36C334.98 138.36 334.983 138.36 334.987 138.36C334.991 138.36 334.994 138.36 334.998 138.36C335.002 138.36 335.006 138.36 335.009 138.36C335.013 138.36 335.017 138.36 335.02 138.36C335.024 138.36 335.028 138.36 335.032 138.36C335.035 138.36 335.039 138.36 335.043 138.36C335.047 138.36 335.05 138.36 335.054 138.36C335.058 138.36 335.061 138.36 335.065 138.36C335.069 138.36 335.073 138.36 335.076 138.36C335.08 138.36 335.084 138.36 335.088 138.36C335.091 138.36 335.095 138.36 335.099 138.36C335.102 138.36 335.106 138.36 335.11 138.36C335.114 138.36 335.117 138.36 335.121 138.36C335.125 138.36 335.129 138.36 335.132 138.36C335.136 138.36 335.14 138.36 335.143 138.36C335.147 138.36 335.151 138.36 335.155 138.36C335.158 138.36 335.162 138.36 335.166 138.36C335.17 138.36 335.173 138.36 335.177 138.36C335.181 138.36 335.185 138.36 335.188 138.36C335.192 138.36 335.196 138.36 335.2 138.36C335.203 138.36 335.207 138.36 335.211 138.36C335.215 138.36 335.218 138.36 335.222 138.36C335.226 138.36 335.23 138.36 335.233 138.36C335.237 138.36 335.241 138.36 335.245 138.36C335.248 138.36 335.252 138.36 335.256 138.36C335.26 138.36 335.263 138.36 335.267 138.36C335.271 138.36 335.275 138.36 335.278 138.36C335.282 138.36 335.286 138.36 335.29 138.36C335.293 138.36 335.297 138.36 335.301 138.36C335.305 138.36 335.308 138.36 335.312 138.36C335.316 138.36 335.32 138.36 335.323 138.36C335.327 138.36 335.331 138.36 335.335 138.36C335.338 138.36 335.342 138.36 335.346 138.36C335.35 138.36 335.353 138.36 335.357 138.36C335.361 138.36 335.365 138.36 335.368 138.36C335.372 138.36 335.376 138.36 335.38 138.36C335.383 138.36 335.387 138.36 335.391 138.36C335.395 138.36 335.399 138.36 335.402 138.36C335.406 138.36 335.41 138.36 335.414 138.36C335.417 138.36 335.421 138.36 335.425 138.36C335.429 138.36 335.432 138.36 335.436 138.36C335.44 138.36 335.444 138.36 335.448 138.36C335.451 138.36 335.455 138.36 335.459 138.36C335.463 138.36 335.466 138.36 335.47 138.36C335.474 138.36 335.478 138.36 335.481 138.36C335.485 138.36 335.489 138.36 335.493 138.36C335.497 138.36 335.5 138.36 335.504 138.36C335.508 138.36 335.512 138.36 335.515 138.36C335.519 138.36 335.523 138.36 335.527 138.36C335.531 138.36 335.534 138.36 335.538 138.36C335.542 138.36 335.546 138.36 335.549 138.36C335.553 138.36 335.557 138.36 335.561 138.36C335.565 138.36 335.568 138.36 335.572 138.36C335.576 138.36 335.58 138.36 335.584 138.36C335.587 138.36 335.591 138.36 335.595 138.36C335.599 138.36 335.602 138.36 335.606 138.36C335.61 138.36 335.614 138.36 335.618 138.36C335.621 138.36 335.625 138.36 335.629 138.36C335.633 138.36 335.637 138.36 335.64 138.36C335.644 138.36 335.648 138.36 335.652 138.36C335.656 138.36 335.659 138.36 335.663 138.36C335.667 138.36 335.671 138.36 335.675 138.36C335.678 138.36 335.682 138.36 335.686 138.36C335.69 138.36 335.694 138.36 335.697 138.36C335.701 138.36 335.705 138.36 335.709 138.36C335.713 138.36 335.716 138.36 335.72 138.36C335.724 138.36 335.728 138.36 335.732 138.36C335.735 138.36 335.739 138.36 335.743 138.36C335.747 138.36 335.751 138.36 335.754 138.36C335.758 138.36 335.762 138.36 335.766 138.36C335.77 138.36 335.773 138.36 335.777 138.36C335.781 138.36 335.785 138.36 335.789 138.36C335.792 138.36 335.796 138.36 335.8 138.36C335.804 138.36 335.808 138.36 335.812 138.36C335.815 138.36 335.819 138.36 335.823 138.36C335.827 138.36 335.831 138.36 335.834 138.36C335.838 138.36 335.842 138.36 335.846 138.36C335.85 138.36 335.853 138.36 335.857 138.36C335.861 138.36 335.865 138.36 335.869 138.36C335.873 138.36 335.876 138.36 335.88 138.36C335.884 138.36 335.888 138.36 335.892 138.36C335.895 138.36 335.899 138.36 335.903 138.36C335.907 138.36 335.911 138.36 335.915 138.36C335.918 138.36 335.922 138.36 335.926 138.36C335.93 138.36 335.934 138.36 335.938 138.36C335.941 138.36 335.945 138.36 335.949 138.36C335.953 138.36 335.957 138.36 335.961 138.36C335.964 138.36 335.968 138.36 335.972 138.36C335.976 138.36 335.98 138.36 335.984 138.36C335.987 138.36 335.991 138.36 335.995 138.36C335.999 138.36 336.003 138.36 336.007 138.36C336.01 138.36 336.014 138.36 336.018 138.36C336.022 138.36 336.026 138.36 336.03 138.36C336.033 138.36 336.037 138.36 336.041 138.36C336.045 138.36 336.049 138.36 336.053 138.36C336.056 138.36 336.06 138.36 336.064 138.36C336.068 138.36 336.072 138.36 336.076 138.36C336.079 138.36 336.083 138.36 336.087 138.36C336.091 138.36 336.095 138.36 336.099 138.36C336.103 138.36 336.106 138.36 336.11 138.36C336.114 138.36 336.118 138.36 336.122 138.36C336.126 138.36 336.129 138.36 336.133 138.36C336.137 138.36 336.141 138.36 336.145 138.36C336.149 138.36 336.153 138.36 336.156 138.36C336.16 138.36 336.164 138.36 336.168 138.36C336.172 138.36 336.176 138.36 336.18 138.36C336.183 138.36 336.187 138.36 336.191 138.36C336.195 138.36 336.199 138.36 336.203 138.36C336.206 138.36 336.21 138.36 336.214 138.36C336.218 138.36 336.222 138.36 336.226 138.36C336.23 138.36 336.234 138.36 336.237 138.36C336.241 138.36 336.245 138.36 336.249 138.36C336.253 138.36 336.257 138.36 336.261 138.36C336.264 138.36 336.268 138.36 336.272 138.36C336.276 138.36 336.28 138.36 336.284 138.36C336.288 138.36 336.291 138.36 336.295 138.36C336.299 138.36 336.303 138.36 336.307 138.36C336.311 138.36 336.315 138.36 336.319 138.36C336.322 138.36 336.326 138.36 336.33 138.36C336.334 138.36 336.338 138.36 336.342 138.36C336.346 138.36 336.35 138.36 336.353 138.36C336.357 138.36 336.361 138.36 336.365 138.36C336.369 138.36 336.373 138.36 336.377 138.36C336.381 138.36 336.384 138.36 336.388 138.36C336.392 138.36 336.396 138.36 336.4 138.36C336.404 138.36 336.408 138.36 336.412 138.36C336.415 138.36 336.419 138.36 336.423 138.36C336.427 138.36 336.431 138.36 336.435 138.36C336.439 138.36 336.443 138.36 336.446 138.36C336.45 138.36 336.454 138.36 336.458 138.36C336.462 138.36 336.466 138.36 336.47 138.36C336.474 138.36 336.478 138.36 336.481 138.36C336.485 138.36 336.489 138.36 336.493 138.36C336.497 138.36 336.501 138.36 336.505 138.36C336.509 138.36 336.513 138.36 336.516 138.36C336.52 138.36 336.524 138.36 336.528 138.36C336.532 138.36 336.536 138.36 336.54 138.36C336.544 138.36 336.548 138.36 336.552 138.36C336.555 138.36 336.559 138.36 336.563 138.36C336.567 138.36 336.571 138.36 336.575 138.36C336.579 138.36 336.583 138.36 336.587 138.36C336.59 138.36 336.594 138.36 336.598 138.36C336.602 138.36 336.606 138.36 336.61 138.36C336.614 138.36 336.618 138.36 336.622 138.36C336.626 138.36 336.63 138.36 336.633 138.36C336.637 138.36 336.641 138.36 336.645 138.36C336.649 138.36 336.653 138.36 336.657 138.36C336.661 138.36 336.665 138.36 336.669 138.36C336.672 138.36 336.676 138.36 336.68 138.36C336.684 138.36 336.688 138.36 336.692 138.36C336.696 138.36 336.7 138.36 336.704 138.36C336.708 138.36 336.712 138.36 336.716 138.36C336.719 138.36 336.723 138.36 336.727 138.36C336.731 138.36 336.735 138.36 336.739 138.36C336.743 138.36 336.747 138.36 336.751 138.36C336.755 138.36 336.759 138.36 336.763 138.36C336.766 138.36 336.77 138.36 336.774 138.36C336.778 138.36 336.782 138.36 336.786 138.36C336.79 138.36 336.794 138.36 336.798 138.36C336.802 138.36 336.806 138.36 336.81 138.36C336.813 138.36 336.817 138.36 336.821 138.36C336.825 138.36 336.829 138.36 336.833 138.36C336.837 138.36 336.841 138.36 336.845 138.36C336.849 138.36 336.853 138.36 336.857 138.36C336.861 138.36 336.865 138.36 336.868 138.36C336.872 138.36 336.876 138.36 336.88 138.36C336.884 138.36 336.888 138.36 336.892 138.36C336.896 138.36 336.9 138.36 336.904 138.36C336.908 138.36 336.912 138.36 336.916 138.36C336.92 138.36 336.924 138.36 336.928 138.36C336.931 138.36 336.935 138.36 336.939 138.36C336.943 138.36 336.947 138.36 336.951 138.36C336.955 138.36 336.959 138.36 336.963 138.36C336.967 138.36 336.971 138.36 336.975 138.36C336.979 138.36 336.983 138.36 336.987 138.36C336.991 138.36 336.995 138.36 336.998 138.36C337.002 138.36 337.006 138.36 337.01 138.36C337.014 138.36 337.018 138.36 337.022 138.36C337.026 138.36 337.03 138.36 337.034 138.36C337.038 138.36 337.042 138.36 337.046 138.36C337.05 138.36 337.054 138.36 337.058 138.36C337.062 138.36 337.066 138.36 337.07 138.36C337.073 138.36 337.077 138.36 337.081 138.36C337.085 138.36 337.089 138.36 337.093 138.36C337.097 138.36 337.101 138.36 337.105 138.36C337.109 138.36 337.113 138.36 337.117 138.36C337.121 138.36 337.125 138.36 337.129 138.36C337.133 138.36 337.137 138.36 337.141 138.36C337.145 138.36 337.149 138.36 337.153 138.36C337.157 138.36 337.161 138.36 337.165 138.36C337.168 138.36 337.172 138.36 337.176 138.36C337.18 138.36 337.184 138.36 337.188 138.36C337.192 138.36 337.196 138.36 337.2 138.36C337.204 138.36 337.208 138.36 337.212 138.36C337.216 138.36 337.22 138.36 337.224 138.36C337.228 138.36 337.232 138.36 337.236 138.36C337.24 138.36 337.244 138.36 337.248 138.36C337.252 138.36 337.256 138.36 337.26 138.36C337.264 138.36 337.268 138.36 337.272 138.36C337.276 138.36 337.28 138.36 337.284 138.36C337.288 138.36 337.292 138.36 337.296 138.36C337.3 138.36 337.304 138.36 337.308 138.36C337.311 138.36 337.315 138.36 337.319 138.36C337.323 138.36 337.327 138.36 337.331 138.36C337.335 138.36 337.339 138.36 337.343 138.36C337.347 138.36 337.351 138.36 337.355 138.36C337.359 138.36 337.363 138.36 337.367 138.36C337.371 138.36 337.375 138.36 337.379 138.36C337.383 138.36 337.387 138.36 337.391 138.36C337.395 138.36 337.399 138.36 337.403 138.36C337.407 138.36 337.411 138.36 337.415 138.36C337.419 138.36 337.423 138.36 337.427 138.36C337.431 138.36 337.435 138.36 337.439 138.36C337.443 138.36 337.447 138.36 337.451 138.36C337.455 138.36 337.459 138.36 337.463 138.36C337.467 138.36 337.471 138.36 337.475 138.36C337.479 138.36 337.483 138.36 337.487 138.36C337.491 138.36 337.495 138.36 337.499 138.36C337.503 138.36 337.507 138.36 337.511 138.36C337.515 138.36 337.519 138.36 337.523 138.36C337.527 138.36 337.531 138.36 337.535 138.36C337.539 138.36 337.543 138.36 337.547 138.36C337.551 138.36 337.555 138.36 337.559 138.36C337.563 138.36 337.567 138.36 337.571 138.36C337.575 138.36 337.579 138.36 337.583 138.36C337.587 138.36 337.591 138.36 337.595 138.36C337.599 138.36 337.603 138.36 337.607 138.36C337.611 138.36 337.615 138.36 337.619 138.36C337.623 138.36 337.627 138.36 337.631 138.36C337.635 138.36 337.639 138.36 337.643 138.36C337.647 138.36 337.651 138.36 337.655 138.36C337.659 138.36 337.663 138.36 337.667 138.36C337.671 138.36 337.675 138.36 337.679 138.36C337.683 138.36 337.687 138.36 337.692 138.36C337.696 138.36 337.7 138.36 337.704 138.36C337.708 138.36 337.712 138.36 337.716 138.36C337.72 138.36 337.724 138.36 337.728 138.36C337.732 138.36 337.736 138.36 337.74 138.36C337.744 138.36 337.748 138.36 337.752 138.36C337.756 138.36 337.76 138.36 337.764 138.36C337.768 138.36 337.772 138.36 337.776 138.36C337.78 138.36 337.784 138.36 337.788 138.36C337.792 138.36 337.796 138.36 337.8 138.36C337.804 138.36 337.808 138.36 337.812 138.36C337.816 138.36 337.82 138.36 337.824 138.36C337.828 138.36 337.832 138.36 337.837 138.36C337.841 138.36 337.845 138.36 337.849 138.36C337.853 138.36 337.857 138.36 337.861 138.36C337.865 138.36 337.869 138.36 337.873 138.36C337.877 138.36 337.881 138.36 337.885 138.36C337.889 138.36 337.893 138.36 337.897 138.36C337.901 138.36 337.905 138.36 337.909 138.36C337.913 138.36 337.917 138.36 337.921 138.36C337.925 138.36 337.929 138.36 337.934 138.36C337.938 138.36 337.942 138.36 337.946 138.36C337.95 138.36 337.954 138.36 337.958 138.36C337.962 138.36 337.966 138.36 337.97 138.36C337.974 138.36 337.978 138.36 337.982 138.36C337.986 138.36 337.99 138.36 337.994 138.36C337.998 138.36 338.002 138.36 338.006 138.36C338.011 138.36 338.015 138.36 338.019 138.36C338.023 138.36 338.027 138.36 338.031 138.36C338.035 138.36 338.039 138.36 338.043 138.36C338.047 138.36 338.051 138.36 338.055 138.36C338.059 138.36 338.063 138.36 338.067 138.36C338.071 138.36 338.075 138.36 338.08 138.36C338.084 138.36 338.088 138.36 338.092 138.36C338.096 138.36 338.1 138.36 338.104 138.36C338.108 138.36 338.112 138.36 338.116 138.36C338.12 138.36 338.124 138.36 338.128 138.36C338.132 138.36 338.136 138.36 338.14 138.36C338.145 138.36 338.149 138.36 338.153 138.36C338.157 138.36 338.161 138.36 338.165 138.36C338.169 138.36 338.173 138.36 338.177 138.36C338.181 138.36 338.185 138.36 338.189 138.36C338.193 138.36 338.197 138.36 338.202 138.36C338.206 138.36 338.21 138.36 338.214 138.36C338.218 138.36 338.222 138.36 338.226 138.36C338.23 138.36 338.234 138.36 338.238 138.36C338.242 138.36 338.246 138.36 338.251 138.36C338.255 138.36 338.259 138.36 338.263 138.36C338.267 138.36 338.271 138.36 338.275 138.36C338.279 138.36 338.283 138.36 338.287 138.36C338.291 138.36 338.295 138.36 338.3 138.36C338.304 138.36 338.308 138.36 338.312 138.36C338.316 138.36 338.32 138.36 338.324 138.36C338.328 138.36 338.332 138.36 338.336 138.36C338.34 138.36 338.344 138.36 338.349 138.36C338.353 138.36 338.357 138.36 338.361 138.36C338.365 138.36 338.369 138.36 338.373 138.36C338.377 138.36 338.381 138.36 338.385 138.36C338.39 138.36 338.394 138.36 338.398 138.36C338.402 138.36 338.406 138.36 338.41 138.36C338.414 138.36 338.418 138.36 338.422 138.36C338.426 138.36 338.43 138.36 338.435 138.36C338.439 138.36 338.443 138.36 338.447 138.36C338.451 138.36 338.455 138.36 338.459 138.36C338.463 138.36 338.467 138.36 338.472 138.36C338.476 138.36 338.48 138.36 338.484 138.36C338.488 138.36 338.492 138.36 338.496 138.36C338.5 138.36 338.504 138.36 338.508 138.36C338.513 138.36 338.517 138.36 338.521 138.36C338.525 138.36 338.529 138.36 338.533 138.36C338.537 138.36 338.541 138.36 338.545 138.36C338.55 138.36 338.554 138.36 338.558 138.36C338.562 138.36 338.566 138.36 338.57 138.36C338.574 138.36 338.578 138.36 338.582 138.36C338.587 138.36 338.591 138.36 338.595 138.36C338.599 138.36 338.603 138.36 338.607 138.36C338.611 138.36 338.615 138.36 338.62 138.36C338.624 138.36 338.628 138.36 338.632 138.36C338.636 138.36 338.64 138.36 338.644 138.36C338.648 138.36 338.653 138.36 338.657 138.36C338.661 138.36 338.665 138.36 338.669 138.36C338.673 138.36 338.677 138.36 338.681 138.36C338.686 138.36 338.69 138.36 338.694 138.36C338.698 138.36 338.702 138.36 338.706 138.36C338.71 138.36 338.714 138.36 338.719 138.36C338.723 138.36 338.727 138.36 338.731 138.36C338.735 138.36 338.739 138.36 338.743 138.36C338.747 138.36 338.752 138.36 338.756 138.36C338.76 138.36 338.764 138.36 338.768 138.36C338.772 138.36 338.776 138.36 338.781 138.36C338.785 138.36 338.789 138.36 338.793 138.36C338.797 138.36 338.801 138.36 338.805 138.36C338.81 138.36 338.814 138.36 338.818 138.36C338.822 138.36 338.826 138.36 338.83 138.36C338.834 138.36 338.838 138.36 338.843 138.36C338.847 138.36 338.851 138.36 338.855 138.36C338.859 138.36 338.863 138.36 338.868 138.36C338.872 138.36 338.876 138.36 338.88 138.36C338.884 138.36 338.888 138.36 338.892 138.36C338.897 138.36 338.901 138.36 338.905 138.36C338.909 138.36 338.913 138.36 338.917 138.36C338.921 138.36 338.926 138.36 338.93 138.36C338.934 138.36 338.938 138.36 338.942 138.36C338.946 138.36 338.951 138.36 338.955 138.36C338.959 138.36 338.963 138.36 338.967 138.36C338.971 138.36 338.975 138.36 338.98 138.36C338.984 138.36 338.988 138.36 338.992 138.36C338.996 138.36 339 138.36 339.005 138.36C339.009 138.36 339.013 138.36 339.017 138.36C339.021 138.36 339.025 138.36 339.03 138.36C339.034 138.36 339.038 138.36 339.042 138.36C339.046 138.36 339.05 138.36 339.055 138.36C339.059 138.36 339.063 138.36 339.067 138.36V134.36C339.063 134.36 339.059 134.36 339.055 134.36C339.05 134.36 339.046 134.36 339.042 134.36C339.038 134.36 339.034 134.36 339.03 134.36C339.025 134.36 339.021 134.36 339.017 134.36C339.013 134.36 339.009 134.36 339.005 134.36C339 134.36 338.996 134.36 338.992 134.36C338.988 134.36 338.984 134.36 338.98 134.36C338.975 134.36 338.971 134.36 338.967 134.36C338.963 134.36 338.959 134.36 338.955 134.36C338.951 134.36 338.946 134.36 338.942 134.36C338.938 134.36 338.934 134.36 338.93 134.36C338.926 134.36 338.921 134.36 338.917 134.36C338.913 134.36 338.909 134.36 338.905 134.36C338.901 134.36 338.897 134.36 338.892 134.36C338.888 134.36 338.884 134.36 338.88 134.36C338.876 134.36 338.872 134.36 338.868 134.36C338.863 134.36 338.859 134.36 338.855 134.36C338.851 134.36 338.847 134.36 338.843 134.36C338.838 134.36 338.834 134.36 338.83 134.36C338.826 134.36 338.822 134.36 338.818 134.36C338.814 134.36 338.81 134.36 338.805 134.36C338.801 134.36 338.797 134.36 338.793 134.36C338.789 134.36 338.785 134.36 338.781 134.36C338.776 134.36 338.772 134.36 338.768 134.36C338.764 134.36 338.76 134.36 338.756 134.36C338.752 134.36 338.747 134.36 338.743 134.36C338.739 134.36 338.735 134.36 338.731 134.36C338.727 134.36 338.723 134.36 338.719 134.36C338.714 134.36 338.71 134.36 338.706 134.36C338.702 134.36 338.698 134.36 338.694 134.36C338.69 134.36 338.686 134.36 338.681 134.36C338.677 134.36 338.673 134.36 338.669 134.36C338.665 134.36 338.661 134.36 338.657 134.36C338.653 134.36 338.648 134.36 338.644 134.36C338.64 134.36 338.636 134.36 338.632 134.36C338.628 134.36 338.624 134.36 338.62 134.36C338.615 134.36 338.611 134.36 338.607 134.36C338.603 134.36 338.599 134.36 338.595 134.36C338.591 134.36 338.587 134.36 338.582 134.36C338.578 134.36 338.574 134.36 338.57 134.36C338.566 134.36 338.562 134.36 338.558 134.36C338.554 134.36 338.55 134.36 338.545 134.36C338.541 134.36 338.537 134.36 338.533 134.36C338.529 134.36 338.525 134.36 338.521 134.36C338.517 134.36 338.513 134.36 338.508 134.36C338.504 134.36 338.5 134.36 338.496 134.36C338.492 134.36 338.488 134.36 338.484 134.36C338.48 134.36 338.476 134.36 338.472 134.36C338.467 134.36 338.463 134.36 338.459 134.36C338.455 134.36 338.451 134.36 338.447 134.36C338.443 134.36 338.439 134.36 338.435 134.36C338.43 134.36 338.426 134.36 338.422 134.36C338.418 134.36 338.414 134.36 338.41 134.36C338.406 134.36 338.402 134.36 338.398 134.36C338.394 134.36 338.39 134.36 338.385 134.36C338.381 134.36 338.377 134.36 338.373 134.36C338.369 134.36 338.365 134.36 338.361 134.36C338.357 134.36 338.353 134.36 338.349 134.36C338.344 134.36 338.34 134.36 338.336 134.36C338.332 134.36 338.328 134.36 338.324 134.36C338.32 134.36 338.316 134.36 338.312 134.36C338.308 134.36 338.304 134.36 338.3 134.36C338.295 134.36 338.291 134.36 338.287 134.36C338.283 134.36 338.279 134.36 338.275 134.36C338.271 134.36 338.267 134.36 338.263 134.36C338.259 134.36 338.255 134.36 338.251 134.36C338.246 134.36 338.242 134.36 338.238 134.36C338.234 134.36 338.23 134.36 338.226 134.36C338.222 134.36 338.218 134.36 338.214 134.36C338.21 134.36 338.206 134.36 338.202 134.36C338.197 134.36 338.193 134.36 338.189 134.36C338.185 134.36 338.181 134.36 338.177 134.36C338.173 134.36 338.169 134.36 338.165 134.36C338.161 134.36 338.157 134.36 338.153 134.36C338.149 134.36 338.145 134.36 338.14 134.36C338.136 134.36 338.132 134.36 338.128 134.36C338.124 134.36 338.12 134.36 338.116 134.36C338.112 134.36 338.108 134.36 338.104 134.36C338.1 134.36 338.096 134.36 338.092 134.36C338.088 134.36 338.084 134.36 338.08 134.36C338.075 134.36 338.071 134.36 338.067 134.36C338.063 134.36 338.059 134.36 338.055 134.36C338.051 134.36 338.047 134.36 338.043 134.36C338.039 134.36 338.035 134.36 338.031 134.36C338.027 134.36 338.023 134.36 338.019 134.36C338.015 134.36 338.011 134.36 338.006 134.36C338.002 134.36 337.998 134.36 337.994 134.36C337.99 134.36 337.986 134.36 337.982 134.36C337.978 134.36 337.974 134.36 337.97 134.36C337.966 134.36 337.962 134.36 337.958 134.36C337.954 134.36 337.95 134.36 337.946 134.36C337.942 134.36 337.938 134.36 337.934 134.36C337.929 134.36 337.925 134.36 337.921 134.36C337.917 134.36 337.913 134.36 337.909 134.36C337.905 134.36 337.901 134.36 337.897 134.36C337.893 134.36 337.889 134.36 337.885 134.36C337.881 134.36 337.877 134.36 337.873 134.36C337.869 134.36 337.865 134.36 337.861 134.36C337.857 134.36 337.853 134.36 337.849 134.36C337.845 134.36 337.841 134.36 337.837 134.36C337.832 134.36 337.828 134.36 337.824 134.36C337.82 134.36 337.816 134.36 337.812 134.36C337.808 134.36 337.804 134.36 337.8 134.36C337.796 134.36 337.792 134.36 337.788 134.36C337.784 134.36 337.78 134.36 337.776 134.36C337.772 134.36 337.768 134.36 337.764 134.36C337.76 134.36 337.756 134.36 337.752 134.36C337.748 134.36 337.744 134.36 337.74 134.36C337.736 134.36 337.732 134.36 337.728 134.36C337.724 134.36 337.72 134.36 337.716 134.36C337.712 134.36 337.708 134.36 337.704 134.36C337.7 134.36 337.696 134.36 337.692 134.36C337.687 134.36 337.683 134.36 337.679 134.36C337.675 134.36 337.671 134.36 337.667 134.36C337.663 134.36 337.659 134.36 337.655 134.36C337.651 134.36 337.647 134.36 337.643 134.36C337.639 134.36 337.635 134.36 337.631 134.36C337.627 134.36 337.623 134.36 337.619 134.36C337.615 134.36 337.611 134.36 337.607 134.36C337.603 134.36 337.599 134.36 337.595 134.36C337.591 134.36 337.587 134.36 337.583 134.36C337.579 134.36 337.575 134.36 337.571 134.36C337.567 134.36 337.563 134.36 337.559 134.36C337.555 134.36 337.551 134.36 337.547 134.36C337.543 134.36 337.539 134.36 337.535 134.36C337.531 134.36 337.527 134.36 337.523 134.36C337.519 134.36 337.515 134.36 337.511 134.36C337.507 134.36 337.503 134.36 337.499 134.36C337.495 134.36 337.491 134.36 337.487 134.36C337.483 134.36 337.479 134.36 337.475 134.36C337.471 134.36 337.467 134.36 337.463 134.36C337.459 134.36 337.455 134.36 337.451 134.36C337.447 134.36 337.443 134.36 337.439 134.36C337.435 134.36 337.431 134.36 337.427 134.36C337.423 134.36 337.419 134.36 337.415 134.36C337.411 134.36 337.407 134.36 337.403 134.36C337.399 134.36 337.395 134.36 337.391 134.36C337.387 134.36 337.383 134.36 337.379 134.36C337.375 134.36 337.371 134.36 337.367 134.36C337.363 134.36 337.359 134.36 337.355 134.36C337.351 134.36 337.347 134.36 337.343 134.36C337.339 134.36 337.335 134.36 337.331 134.36C337.327 134.36 337.323 134.36 337.319 134.36C337.315 134.36 337.311 134.36 337.308 134.36C337.304 134.36 337.3 134.36 337.296 134.36C337.292 134.36 337.288 134.36 337.284 134.36C337.28 134.36 337.276 134.36 337.272 134.36C337.268 134.36 337.264 134.36 337.26 134.36C337.256 134.36 337.252 134.36 337.248 134.36C337.244 134.36 337.24 134.36 337.236 134.36C337.232 134.36 337.228 134.36 337.224 134.36C337.22 134.36 337.216 134.36 337.212 134.36C337.208 134.36 337.204 134.36 337.2 134.36C337.196 134.36 337.192 134.36 337.188 134.36C337.184 134.36 337.18 134.36 337.176 134.36C337.172 134.36 337.168 134.36 337.165 134.36C337.161 134.36 337.157 134.36 337.153 134.36C337.149 134.36 337.145 134.36 337.141 134.36C337.137 134.36 337.133 134.36 337.129 134.36C337.125 134.36 337.121 134.36 337.117 134.36C337.113 134.36 337.109 134.36 337.105 134.36C337.101 134.36 337.097 134.36 337.093 134.36C337.089 134.36 337.085 134.36 337.081 134.36C337.077 134.36 337.073 134.36 337.07 134.36C337.066 134.36 337.062 134.36 337.058 134.36C337.054 134.36 337.05 134.36 337.046 134.36C337.042 134.36 337.038 134.36 337.034 134.36C337.03 134.36 337.026 134.36 337.022 134.36C337.018 134.36 337.014 134.36 337.01 134.36C337.006 134.36 337.002 134.36 336.998 134.36C336.995 134.36 336.991 134.36 336.987 134.36C336.983 134.36 336.979 134.36 336.975 134.36C336.971 134.36 336.967 134.36 336.963 134.36C336.959 134.36 336.955 134.36 336.951 134.36C336.947 134.36 336.943 134.36 336.939 134.36C336.935 134.36 336.931 134.36 336.928 134.36C336.924 134.36 336.92 134.36 336.916 134.36C336.912 134.36 336.908 134.36 336.904 134.36C336.9 134.36 336.896 134.36 336.892 134.36C336.888 134.36 336.884 134.36 336.88 134.36C336.876 134.36 336.872 134.36 336.868 134.36C336.865 134.36 336.861 134.36 336.857 134.36C336.853 134.36 336.849 134.36 336.845 134.36C336.841 134.36 336.837 134.36 336.833 134.36C336.829 134.36 336.825 134.36 336.821 134.36C336.817 134.36 336.813 134.36 336.81 134.36C336.806 134.36 336.802 134.36 336.798 134.36C336.794 134.36 336.79 134.36 336.786 134.36C336.782 134.36 336.778 134.36 336.774 134.36C336.77 134.36 336.766 134.36 336.763 134.36C336.759 134.36 336.755 134.36 336.751 134.36C336.747 134.36 336.743 134.36 336.739 134.36C336.735 134.36 336.731 134.36 336.727 134.36C336.723 134.36 336.719 134.36 336.716 134.36C336.712 134.36 336.708 134.36 336.704 134.36C336.7 134.36 336.696 134.36 336.692 134.36C336.688 134.36 336.684 134.36 336.68 134.36C336.676 134.36 336.672 134.36 336.669 134.36C336.665 134.36 336.661 134.36 336.657 134.36C336.653 134.36 336.649 134.36 336.645 134.36C336.641 134.36 336.637 134.36 336.633 134.36C336.63 134.36 336.626 134.36 336.622 134.36C336.618 134.36 336.614 134.36 336.61 134.36C336.606 134.36 336.602 134.36 336.598 134.36C336.594 134.36 336.59 134.36 336.587 134.36C336.583 134.36 336.579 134.36 336.575 134.36C336.571 134.36 336.567 134.36 336.563 134.36C336.559 134.36 336.555 134.36 336.552 134.36C336.548 134.36 336.544 134.36 336.54 134.36C336.536 134.36 336.532 134.36 336.528 134.36C336.524 134.36 336.52 134.36 336.516 134.36C336.513 134.36 336.509 134.36 336.505 134.36C336.501 134.36 336.497 134.36 336.493 134.36C336.489 134.36 336.485 134.36 336.481 134.36C336.478 134.36 336.474 134.36 336.47 134.36C336.466 134.36 336.462 134.36 336.458 134.36C336.454 134.36 336.45 134.36 336.446 134.36C336.443 134.36 336.439 134.36 336.435 134.36C336.431 134.36 336.427 134.36 336.423 134.36C336.419 134.36 336.415 134.36 336.412 134.36C336.408 134.36 336.404 134.36 336.4 134.36C336.396 134.36 336.392 134.36 336.388 134.36C336.384 134.36 336.381 134.36 336.377 134.36C336.373 134.36 336.369 134.36 336.365 134.36C336.361 134.36 336.357 134.36 336.353 134.36C336.35 134.36 336.346 134.36 336.342 134.36C336.338 134.36 336.334 134.36 336.33 134.36C336.326 134.36 336.322 134.36 336.319 134.36C336.315 134.36 336.311 134.36 336.307 134.36C336.303 134.36 336.299 134.36 336.295 134.36C336.291 134.36 336.288 134.36 336.284 134.36C336.28 134.36 336.276 134.36 336.272 134.36C336.268 134.36 336.264 134.36 336.261 134.36C336.257 134.36 336.253 134.36 336.249 134.36C336.245 134.36 336.241 134.36 336.237 134.36C336.234 134.36 336.23 134.36 336.226 134.36C336.222 134.36 336.218 134.36 336.214 134.36C336.21 134.36 336.206 134.36 336.203 134.36C336.199 134.36 336.195 134.36 336.191 134.36C336.187 134.36 336.183 134.36 336.18 134.36C336.176 134.36 336.172 134.36 336.168 134.36C336.164 134.36 336.16 134.36 336.156 134.36C336.153 134.36 336.149 134.36 336.145 134.36C336.141 134.36 336.137 134.36 336.133 134.36C336.129 134.36 336.126 134.36 336.122 134.36C336.118 134.36 336.114 134.36 336.11 134.36C336.106 134.36 336.103 134.36 336.099 134.36C336.095 134.36 336.091 134.36 336.087 134.36C336.083 134.36 336.079 134.36 336.076 134.36C336.072 134.36 336.068 134.36 336.064 134.36C336.06 134.36 336.056 134.36 336.053 134.36C336.049 134.36 336.045 134.36 336.041 134.36C336.037 134.36 336.033 134.36 336.03 134.36C336.026 134.36 336.022 134.36 336.018 134.36C336.014 134.36 336.01 134.36 336.007 134.36C336.003 134.36 335.999 134.36 335.995 134.36C335.991 134.36 335.987 134.36 335.984 134.36C335.98 134.36 335.976 134.36 335.972 134.36C335.968 134.36 335.964 134.36 335.961 134.36C335.957 134.36 335.953 134.36 335.949 134.36C335.945 134.36 335.941 134.36 335.938 134.36C335.934 134.36 335.93 134.36 335.926 134.36C335.922 134.36 335.918 134.36 335.915 134.36C335.911 134.36 335.907 134.36 335.903 134.36C335.899 134.36 335.895 134.36 335.892 134.36C335.888 134.36 335.884 134.36 335.88 134.36C335.876 134.36 335.873 134.36 335.869 134.36C335.865 134.36 335.861 134.36 335.857 134.36C335.853 134.36 335.85 134.36 335.846 134.36C335.842 134.36 335.838 134.36 335.834 134.36C335.831 134.36 335.827 134.36 335.823 134.36C335.819 134.36 335.815 134.36 335.812 134.36C335.808 134.36 335.804 134.36 335.8 134.36C335.796 134.36 335.792 134.36 335.789 134.36C335.785 134.36 335.781 134.36 335.777 134.36C335.773 134.36 335.77 134.36 335.766 134.36C335.762 134.36 335.758 134.36 335.754 134.36C335.751 134.36 335.747 134.36 335.743 134.36C335.739 134.36 335.735 134.36 335.732 134.36C335.728 134.36 335.724 134.36 335.72 134.36C335.716 134.36 335.713 134.36 335.709 134.36C335.705 134.36 335.701 134.36 335.697 134.36C335.694 134.36 335.69 134.36 335.686 134.36C335.682 134.36 335.678 134.36 335.675 134.36C335.671 134.36 335.667 134.36 335.663 134.36C335.659 134.36 335.656 134.36 335.652 134.36C335.648 134.36 335.644 134.36 335.64 134.36C335.637 134.36 335.633 134.36 335.629 134.36C335.625 134.36 335.621 134.36 335.618 134.36C335.614 134.36 335.61 134.36 335.606 134.36C335.602 134.36 335.599 134.36 335.595 134.36C335.591 134.36 335.587 134.36 335.584 134.36C335.58 134.36 335.576 134.36 335.572 134.36C335.568 134.36 335.565 134.36 335.561 134.36C335.557 134.36 335.553 134.36 335.549 134.36C335.546 134.36 335.542 134.36 335.538 134.36C335.534 134.36 335.531 134.36 335.527 134.36C335.523 134.36 335.519 134.36 335.515 134.36C335.512 134.36 335.508 134.36 335.504 134.36C335.5 134.36 335.497 134.36 335.493 134.36C335.489 134.36 335.485 134.36 335.481 134.36C335.478 134.36 335.474 134.36 335.47 134.36C335.466 134.36 335.463 134.36 335.459 134.36C335.455 134.36 335.451 134.36 335.448 134.36C335.444 134.36 335.44 134.36 335.436 134.36C335.432 134.36 335.429 134.36 335.425 134.36C335.421 134.36 335.417 134.36 335.414 134.36C335.41 134.36 335.406 134.36 335.402 134.36C335.399 134.36 335.395 134.36 335.391 134.36C335.387 134.36 335.383 134.36 335.38 134.36C335.376 134.36 335.372 134.36 335.368 134.36C335.365 134.36 335.361 134.36 335.357 134.36C335.353 134.36 335.35 134.36 335.346 134.36C335.342 134.36 335.338 134.36 335.335 134.36C335.331 134.36 335.327 134.36 335.323 134.36C335.32 134.36 335.316 134.36 335.312 134.36C335.308 134.36 335.305 134.36 335.301 134.36C335.297 134.36 335.293 134.36 335.29 134.36C335.286 134.36 335.282 134.36 335.278 134.36C335.275 134.36 335.271 134.36 335.267 134.36C335.263 134.36 335.26 134.36 335.256 134.36C335.252 134.36 335.248 134.36 335.245 134.36C335.241 134.36 335.237 134.36 335.233 134.36C335.23 134.36 335.226 134.36 335.222 134.36C335.218 134.36 335.215 134.36 335.211 134.36C335.207 134.36 335.203 134.36 335.2 134.36C335.196 134.36 335.192 134.36 335.188 134.36C335.185 134.36 335.181 134.36 335.177 134.36C335.173 134.36 335.17 134.36 335.166 134.36C335.162 134.36 335.158 134.36 335.155 134.36C335.151 134.36 335.147 134.36 335.143 134.36C335.14 134.36 335.136 134.36 335.132 134.36C335.129 134.36 335.125 134.36 335.121 134.36C335.117 134.36 335.114 134.36 335.11 134.36C335.106 134.36 335.102 134.36 335.099 134.36C335.095 134.36 335.091 134.36 335.088 134.36C335.084 134.36 335.08 134.36 335.076 134.36C335.073 134.36 335.069 134.36 335.065 134.36C335.061 134.36 335.058 134.36 335.054 134.36C335.05 134.36 335.047 134.36 335.043 134.36C335.039 134.36 335.035 134.36 335.032 134.36C335.028 134.36 335.024 134.36 335.02 134.36C335.017 134.36 335.013 134.36 335.009 134.36C335.006 134.36 335.002 134.36 334.998 134.36C334.994 134.36 334.991 134.36 334.987 134.36C334.983 134.36 334.98 134.36 334.976 134.36C334.972 134.36 334.968 134.36 334.965 134.36C334.961 134.36 334.957 134.36 334.954 134.36C334.95 134.36 334.946 134.36 334.942 134.36C334.939 134.36 334.935 134.36 334.931 134.36C334.928 134.36 334.924 134.36 334.92 134.36C334.916 134.36 334.913 134.36 334.909 134.36C334.905 134.36 334.902 134.36 334.898 134.36C334.894 134.36 334.89 134.36 334.887 134.36C334.883 134.36 334.879 134.36 334.876 134.36C334.872 134.36 334.868 134.36 334.865 134.36C334.861 134.36 334.857 134.36 334.853 134.36C334.85 134.36 334.846 134.36 334.842 134.36C334.839 134.36 334.835 134.36 334.831 134.36C334.828 134.36 334.824 134.36 334.82 134.36C334.816 134.36 334.813 134.36 334.809 134.36C334.805 134.36 334.802 134.36 334.798 134.36C334.794 134.36 334.791 134.36 334.787 134.36C334.783 134.36 334.779 134.36 334.776 134.36C334.772 134.36 334.768 134.36 334.765 134.36C334.761 134.36 334.757 134.36 334.754 134.36C334.75 134.36 334.746 134.36 334.743 134.36C334.739 134.36 334.735 134.36 334.732 134.36C334.728 134.36 334.724 134.36 334.72 134.36C334.717 134.36 334.713 134.36 334.709 134.36C334.706 134.36 334.702 134.36 334.698 134.36C334.695 134.36 334.691 134.36 334.687 134.36C334.684 134.36 334.68 134.36 334.676 134.36C334.673 134.36 334.669 134.36 334.665 134.36C334.662 134.36 334.658 134.36 334.654 134.36C334.65 134.36 334.647 134.36 334.643 134.36C334.639 134.36 334.636 134.36 334.632 134.36C334.628 134.36 334.625 134.36 334.621 134.36C334.617 134.36 334.614 134.36 334.61 134.36C334.606 134.36 334.603 134.36 334.599 134.36C334.595 134.36 334.592 134.36 334.588 134.36C334.584 134.36 334.581 134.36 334.577 134.36C334.573 134.36 334.57 134.36 334.566 134.36C334.562 134.36 334.559 134.36 334.555 134.36C334.551 134.36 334.548 134.36 334.544 134.36C334.54 134.36 334.537 134.36 334.533 134.36C334.529 134.36 334.526 134.36 334.522 134.36C334.518 134.36 334.515 134.36 334.511 134.36C334.507 134.36 334.504 134.36 334.5 134.36C334.496 134.36 334.493 134.36 334.489 134.36C334.485 134.36 334.482 134.36 334.478 134.36C334.474 134.36 334.471 134.36 334.467 134.36C334.463 134.36 334.46 134.36 334.456 134.36C334.453 134.36 334.449 134.36 334.445 134.36C334.442 134.36 334.438 134.36 334.434 134.36C334.431 134.36 334.427 134.36 334.423 134.36C334.42 134.36 334.416 134.36 334.412 134.36C334.409 134.36 334.405 134.36 334.401 134.36C334.398 134.36 334.394 134.36 334.39 134.36C334.387 134.36 334.383 134.36 334.38 134.36C334.376 134.36 334.372 134.36 334.369 134.36C334.365 134.36 334.361 134.36 334.358 134.36C334.354 134.36 334.35 134.36 334.347 134.36C334.343 134.36 334.339 134.36 334.336 134.36C334.332 134.36 334.329 134.36 334.325 134.36C334.321 134.36 334.318 134.36 334.314 134.36C334.31 134.36 334.307 134.36 334.303 134.36C334.299 134.36 334.296 134.36 334.292 134.36C334.288 134.36 334.285 134.36 334.281 134.36C334.278 134.36 334.274 134.36 334.27 134.36C334.267 134.36 334.263 134.36 334.259 134.36C334.256 134.36 334.252 134.36 334.249 134.36C334.245 134.36 334.241 134.36 334.238 134.36C334.234 134.36 334.23 134.36 334.227 134.36C334.223 134.36 334.22 134.36 334.216 134.36C334.212 134.36 334.209 134.36 334.205 134.36C334.201 134.36 334.198 134.36 334.194 134.36C334.191 134.36 334.187 134.36 334.183 134.36C334.18 134.36 334.176 134.36 334.172 134.36C334.169 134.36 334.165 134.36 334.162 134.36C334.158 134.36 334.154 134.36 334.151 134.36C334.147 134.36 334.143 134.36 334.14 134.36C334.136 134.36 334.133 134.36 334.129 134.36C334.125 134.36 334.122 134.36 334.118 134.36C334.115 134.36 334.111 134.36 334.107 134.36C334.104 134.36 334.1 134.36 334.096 134.36C334.093 134.36 334.089 134.36 334.086 134.36C334.082 134.36 334.078 134.36 334.075 134.36C334.071 134.36 334.068 134.36 334.064 134.36C334.06 134.36 334.057 134.36 334.053 134.36C334.05 134.36 334.046 134.36 334.042 134.36C334.039 134.36 334.035 134.36 334.032 134.36C334.028 134.36 334.024 134.36 334.021 134.36C334.017 134.36 334.013 134.36 334.01 134.36C334.006 134.36 334.003 134.36 333.999 134.36C333.995 134.36 333.992 134.36 333.988 134.36C333.985 134.36 333.981 134.36 333.977 134.36C333.974 134.36 333.97 134.36 333.967 134.36C333.963 134.36 333.96 134.36 333.956 134.36C333.952 134.36 333.949 134.36 333.945 134.36C333.942 134.36 333.938 134.36 333.934 134.36C333.931 134.36 333.927 134.36 333.924 134.36C333.92 134.36 333.916 134.36 333.913 134.36C333.909 134.36 333.906 134.36 333.902 134.36C333.898 134.36 333.895 134.36 333.891 134.36C333.888 134.36 333.884 134.36 333.881 134.36C333.877 134.36 333.873 134.36 333.87 134.36C333.866 134.36 333.863 134.36 333.859 134.36C333.855 134.36 333.852 134.36 333.848 134.36C333.845 134.36 333.841 134.36 333.838 134.36C333.834 134.36 333.83 134.36 333.827 134.36C333.823 134.36 333.82 134.36 333.816 134.36C333.812 134.36 333.809 134.36 333.805 134.36C333.802 134.36 333.798 134.36 333.795 134.36C333.791 134.36 333.787 134.36 333.784 134.36C333.78 134.36 333.777 134.36 333.773 134.36C333.77 134.36 333.766 134.36 333.762 134.36C333.759 134.36 333.755 134.36 333.752 134.36C333.748 134.36 333.745 134.36 333.741 134.36C333.737 134.36 333.734 134.36 333.73 134.36C333.727 134.36 333.723 134.36 333.72 134.36C333.716 134.36 333.712 134.36 333.709 134.36C333.705 134.36 333.702 134.36 333.698 134.36C333.695 134.36 333.691 134.36 333.688 134.36C333.684 134.36 333.68 134.36 333.677 134.36C333.673 134.36 333.67 134.36 333.666 134.36C333.663 134.36 333.659 134.36 333.655 134.36C333.652 134.36 333.648 134.36 333.645 134.36C333.641 134.36 333.638 134.36 333.634 134.36C333.631 134.36 333.627 134.36 333.623 134.36C333.62 134.36 333.616 134.36 333.613 134.36C333.609 134.36 333.606 134.36 333.602 134.36C333.599 134.36 333.595 134.36 333.591 134.36C333.588 134.36 333.584 134.36 333.581 134.36C333.577 134.36 333.574 134.36 333.57 134.36C333.567 134.36 333.563 134.36 333.56 134.36C333.556 134.36 333.552 134.36 333.549 134.36C333.545 134.36 333.542 134.36 333.538 134.36C333.535 134.36 333.531 134.36 333.528 134.36C333.524 134.36 333.521 134.36 333.517 134.36C333.513 134.36 333.51 134.36 333.506 134.36C333.503 134.36 333.499 134.36 333.496 134.36C333.492 134.36 333.489 134.36 333.485 134.36C333.482 134.36 333.478 134.36 333.475 134.36C333.471 134.36 333.467 134.36 333.464 134.36C333.46 134.36 333.457 134.36 333.453 134.36C333.45 134.36 333.446 134.36 333.443 134.36C333.439 134.36 333.436 134.36 333.432 134.36C333.429 134.36 333.425 134.36 333.422 134.36C333.418 134.36 333.414 134.36 333.411 134.36C333.407 134.36 333.404 134.36 333.4 134.36C333.397 134.36 333.393 134.36 333.39 134.36C333.386 134.36 333.383 134.36 333.379 134.36C333.376 134.36 333.372 134.36 333.369 134.36C333.365 134.36 333.362 134.36 333.358 134.36C333.355 134.36 333.351 134.36 333.348 134.36C333.344 134.36 333.34 134.36 333.337 134.36C333.333 134.36 333.33 134.36 333.326 134.36C333.323 134.36 333.319 134.36 333.316 134.36C333.312 134.36 333.309 134.36 333.305 134.36C333.302 134.36 333.298 134.36 333.295 134.36C333.291 134.36 333.288 134.36 333.284 134.36C333.281 134.36 333.277 134.36 333.274 134.36C333.27 134.36 333.267 134.36 333.263 134.36C333.26 134.36 333.256 134.36 333.253 134.36C333.249 134.36 333.246 134.36 333.242 134.36C333.239 134.36 333.235 134.36 333.232 134.36C333.228 134.36 333.225 134.36 333.221 134.36C333.218 134.36 333.214 134.36 333.211 134.36C333.207 134.36 333.204 134.36 333.2 134.36C333.197 134.36 333.193 134.36 333.19 134.36C333.186 134.36 333.183 134.36 333.179 134.36V138.36ZM339.147 138.358C341.278 138.273 343.495 138.188 345.797 138.103L345.649 134.105C343.343 134.191 341.123 134.276 338.987 134.362L339.147 138.358ZM345.797 138.103C348.101 138.017 350.405 137.932 352.709 137.847L352.561 133.849C350.257 133.935 347.953 134.02 345.649 134.105L345.797 138.103ZM352.706 137.847C355.127 137.76 358.181 137.588 361.862 137.331L361.584 133.341C357.926 133.596 354.922 133.765 352.564 133.849L352.706 137.847ZM361.859 137.331C365.608 137.076 370.254 136.777 375.798 136.436L375.552 132.444C370.003 132.785 365.348 133.084 361.587 133.341L361.859 137.331ZM373.675 134.44V151.72H377.675V134.44H373.675Z" fill="black" mask="url(#path-3-outside-1_12_6)"/>
<defs>
<filter id="filter0_d_12_6" x="0" y="0" width="399" height="226" filterUnits="userSpaceOnUse" color-interpolation-filters="sRGB">
<feFlood flood-opacity="0" result="BackgroundImageFix"/>
<feColorMatrix in="SourceAlpha" type="matrix" values="0 0 0 0 0 0 0 0 0 0 0 0 0 0 0 0 0 0 127 0" result="hardAlpha"/>
<feOffset dy="4"/>
<feGaussianBlur stdDeviation="2"/>
<feComposite in2="hardAlpha" operator="out"/>
<feColorMatrix type="matrix" values="0 0 0 0 0 0 0 0 0 0 0 0 0 0 0 0 0 0 0.25 0"/>
<feBlend mode="normal" in2="BackgroundImageFix" result="effect1_dropShadow_12_6"/>
<feBlend mode="normal" in="SourceGraphic" in2="effect1_dropShadow_12_6" result="shape"/>
</filter>
<linearGradient id="paint0_linear_12_6" x1="57.8256" y1="54.7059" x2="340.153" y2="189.067" gradientUnits="userSpaceOnUse">
<stop stop-color="#FFE600"/>
<stop offset="1" stop-color="#E57A00"/>
</linearGradient>
<linearGradient id="paint1_linear_12_6" x1="383.5" y1="204" x2="9.00003" y2="12.5" gradientUnits="userSpaceOnUse">
<stop/>
<stop offset="1" stop-color="#535353"/>
</linearGradient>
<linearGradient id="paint2_linear_12_6" x1="379" y1="153" x2="21" y2="64" gradientUnits="userSpaceOnUse">
<stop stop-color="#005CD5"/>
<stop offset="1" stop-color="#00306F"/>
</linearGradient>
</defs>
</svg>
